<svg id="visual" viewBox="0 0 960 540" width="960" height="540" xmlns="http://www.w3.org/2000/svg" xmlns:xlink="http://www.w3.org/1999/xlink" version="1.1"><rect x="0" y="0" width="960" height="540" fill="#ffffff"></rect><path d="M0 234L16 229.5C32 225 64 216 96 210C128 204 160 201 192 204.7C224 208.3 256 218.7 288 212.5C320 206.3 352 183.7 384 171C416 158.3 448 155.7 480 154.3C512 153 544 153 576 163.5C608 174 640 195 672 195.3C704 195.7 736 175.3 768 170.3C800 165.3 832 175.7 864 182.2C896 188.7 928 191.3 944 192.7L960 194L960 541L944 541C928 541 896 541 864 541C832 541 800 541 768 541C736 541 704 541 672 541C640 541 608 541 576 541C544 541 512 541 480 541C448 541 416 541 384 541C352 541 320 541 288 541C256 541 224 541 192 541C160 541 128 541 96 541C64 541 32 541 16 541L0 541Z" fill="#6d6aff"></path><path d="M0 248L16 252C32 256 64 264 96 269.8C128 275.7 160 279.3 192 270.5C224 261.7 256 240.3 288 234.7C320 229 352 239 384 239.8C416 240.7 448 232.3 480 230C512 227.7 544 231.3 576 237.5C608 243.7 640 252.3 672 248.3C704 244.3 736 227.7 768 225.2C800 222.7 832 234.3 864 245.8C896 257.3 928 268.7 944 274.3L960 280L960 541L944 541C928 541 896 541 864 541C832 541 800 541 768 541C736 541 704 541 672 541C640 541 608 541 576 541C544 541 512 541 480 541C448 541 416 541 384 541C352 541 320 541 288 541C256 541 224 541 192 541C160 541 128 541 96 541C64 541 32 541 16 541L0 541Z" fill="#514eff"></path><path d="M0 324L16 315.2C32 306.3 64 288.7 96 280.3C128 272 160 273 192 280.5C224 288 256 302 288 305C320 308 352 300 384 294.5C416 289 448 286 480 283.5C512 281 544 279 576 285.5C608 292 640 307 672 308.8C704 310.7 736 299.3 768 296.2C800 293 832 298 864 299.7C896 301.3 928 299.7 944 298.8L960 298L960 541L944 541C928 541 896 541 864 541C832 541 800 541 768 541C736 541 704 541 672 541C640 541 608 541 576 541C544 541 512 541 480 541C448 541 416 541 384 541C352 541 320 541 288 541C256 541 224 541 192 541C160 541 128 541 96 541C64 541 32 541 16 541L0 541Z" fill="#2b2dff"></path><path d="M0 360L16 364.2C32 368.3 64 376.7 96 376.8C128 377 160 369 192 366.3C224 363.7 256 366.3 288 364.3C320 362.3 352 355.7 384 354.7C416 353.7 448 358.3 480 359.3C512 360.3 544 357.7 576 358C608 358.3 640 361.7 672 362C704 362.3 736 359.7 768 356.7C800 353.7 832 350.3 864 355.2C896 360 928 373 944 379.5L960 386L960 541L944 541C928 541 896 541 864 541C832 541 800 541 768 541C736 541 704 541 672 541C640 541 608 541 576 541C544 541 512 541 480 541C448 541 416 541 384 541C352 541 320 541 288 541C256 541 224 541 192 541C160 541 128 541 96 541C64 541 32 541 16 541L0 541Z" fill="#0015f1"></path><path d="M0 419L16 421.5C32 424 64 429 96 425.7C128 422.3 160 410.7 192 405.3C224 400 256 401 288 400.2C320 399.3 352 396.7 384 399.7C416 402.7 448 411.3 480 418.2C512 425 544 430 576 432.8C608 435.7 640 436.3 672 429.2C704 422 736 407 768 405C800 403 832 414 864 420.5C896 427 928 429 944 430L960 431L960 541L944 541C928 541 896 541 864 541C832 541 800 541 768 541C736 541 704 541 672 541C640 541 608 541 576 541C544 541 512 541 480 541C448 541 416 541 384 541C352 541 320 541 288 541C256 541 224 541 192 541C160 541 128 541 96 541C64 541 32 541 16 541L0 541Z" fill="#0017d6"></path><path d="M0 457L16 458.5C32 460 64 463 96 461.7C128 460.3 160 454.7 192 456.2C224 457.7 256 466.3 288 471C320 475.7 352 476.3 384 473.7C416 471 448 465 480 464.3C512 463.7 544 468.3 576 467.5C608 466.7 640 460.3 672 461.8C704 463.3 736 472.7 768 475C800 477.3 832 472.7 864 469.2C896 465.7 928 463.3 944 462.2L960 461L960 541L944 541C928 541 896 541 864 541C832 541 800 541 768 541C736 541 704 541 672 541C640 541 608 541 576 541C544 541 512 541 480 541C448 541 416 541 384 541C352 541 320 541 288 541C256 541 224 541 192 541C160 541 128 541 96 541C64 541 32 541 16 541L0 541Z" fill="#0017bc"></path></svg>